<svg width="50" height="50" viewBox="0 0 50 50" fill="none" xmlns="http://www.w3.org/2000/svg">
<path fill-rule="evenodd" clip-rule="evenodd" d="M4.6875 8.33333C4.6875 6.31979 6.31979 4.6875 8.33333 4.6875H16.6667C17.5296 4.6875 18.2292 5.38706 18.2292 6.25C18.2292 7.11294 17.5296 7.8125 16.6667 7.8125H8.33333C8.04568 7.8125 7.8125 8.04568 7.8125 8.33333V16.6667C7.8125 17.5296 7.11294 18.2292 6.25 18.2292C5.38706 18.2292 4.6875 17.5296 4.6875 16.6667V8.33333Z" fill="white"/>
<path fill-rule="evenodd" clip-rule="evenodd" d="M6.25 31.7708C7.11294 31.7708 7.8125 32.4704 7.8125 33.3333V41.6667C7.8125 41.9543 8.04567 42.1875 8.33333 42.1875H16.6667C17.5296 42.1875 18.2292 42.8871 18.2292 43.75C18.2292 44.6129 17.5296 45.3125 16.6667 45.3125H8.33333C6.31981 45.3125 4.6875 43.6803 4.6875 41.6667V33.3333C4.6875 32.4704 5.38706 31.7708 6.25 31.7708Z" fill="white"/>
<path fill-rule="evenodd" clip-rule="evenodd" d="M43.75 31.7708C44.6129 31.7708 45.3125 32.4704 45.3125 33.3333V41.6667C45.3125 43.6802 43.6802 45.3125 41.6667 45.3125H33.3333C32.4704 45.3125 31.7708 44.6129 31.7708 43.75C31.7708 42.8871 32.4704 42.1875 33.3333 42.1875H41.6667C41.9543 42.1875 42.1875 41.9543 42.1875 41.6667V33.3333C42.1875 32.4704 42.8871 31.7708 43.75 31.7708Z" fill="white"/>
<path fill-rule="evenodd" clip-rule="evenodd" d="M31.7708 6.25C31.7708 5.38706 32.4704 4.6875 33.3333 4.6875H41.6667C43.6803 4.6875 45.3125 6.31981 45.3125 8.33333V16.6667C45.3125 17.5296 44.6129 18.2292 43.75 18.2292C42.8871 18.2292 42.1875 17.5296 42.1875 16.6667V8.33333C42.1875 8.04567 41.9543 7.8125 41.6667 7.8125H33.3333C32.4704 7.8125 31.7708 7.11294 31.7708 6.25Z" fill="white"/>
<path fill-rule="evenodd" clip-rule="evenodd" d="M15.1042 25C15.1042 24.1371 15.8037 23.4375 16.6667 23.4375H33.3333C34.1963 23.4375 34.8958 24.1371 34.8958 25C34.8958 25.8629 34.1963 26.5625 33.3333 26.5625H16.6667C15.8037 26.5625 15.1042 25.8629 15.1042 25Z" fill="white"/>
<path fill-rule="evenodd" clip-rule="evenodd" d="M25 15.1042C25.8629 15.1042 26.5625 15.8037 26.5625 16.6667V33.3333C26.5625 34.1963 25.8629 34.8958 25 34.8958C24.1371 34.8958 23.4375 34.1963 23.4375 33.3333V16.6667C23.4375 15.8037 24.1371 15.1042 25 15.1042Z" fill="white"/>
</svg>
