<svg width="24" height="24" viewBox="0 0 24 24" fill="none" xmlns="http://www.w3.org/2000/svg">
<path d="M2.75 21C2.75 20.5858 3.08579 20.25 3.5 20.25H21.5C21.9142 20.25 22.25 20.5858 22.25 21C22.25 21.4142 21.9142 21.75 21.5 21.75H3.5C3.08579 21.75 2.75 21.4142 2.75 21Z" fill="#CDCCCC"/>
<path d="M15.8474 2.25C16.0464 2.24996 16.2373 2.32903 16.378 2.46979L20.0304 6.12384C20.3232 6.4167 20.3232 6.8914 20.0304 7.18426L9.68905 17.5302C9.54838 17.6709 9.35757 17.75 9.1586 17.75H5.5C5.08579 17.75 4.75 17.4142 4.75 17V13.36C4.75 13.1612 4.82889 12.9706 4.96935 12.8299L15.3169 2.46999C15.4575 2.32918 15.6484 2.25004 15.8474 2.25ZM15.8478 4.06109L6.25 13.6703V16.25H8.84784L18.4396 6.65405L15.8478 4.06109Z" fill="#CDCCCC"/>
</svg>
