<svg width="50" height="50" fill="none" xmlns="http://www.w3.org/2000/svg"><path fill-rule="evenodd" clip-rule="evenodd" d="M4.688 8.333a3.646 3.646 0 013.645-3.646h8.334a1.563 1.563 0 010 3.125H8.333a.52.52 0 00-.52.521v8.334a1.563 1.563 0 01-3.125 0V8.333zM6.25 31.77c.863 0 1.563.7 1.563 1.563v8.334c0 .287.233.52.52.52h8.334a1.563 1.563 0 010 3.126H8.333a3.646 3.646 0 01-3.646-3.646v-8.334c0-.863.7-1.562 1.563-1.562zm37.5 0c.863 0 1.563.7 1.563 1.563v8.334a3.646 3.646 0 01-3.646 3.645h-8.334a1.563 1.563 0 010-3.124h8.334a.52.52 0 00.52-.521v-8.334c0-.863.7-1.562 1.563-1.562zM31.77 6.25c0-.863.7-1.563 1.563-1.563h8.334a3.646 3.646 0 013.645 3.646v8.334a1.563 1.563 0 01-3.124 0V8.333a.52.52 0 00-.521-.52h-8.334c-.863 0-1.562-.7-1.562-1.563zM15.104 25c0-.863.7-1.563 1.563-1.563h16.666a1.562 1.562 0 110 3.125H16.667c-.863 0-1.563-.7-1.563-1.562z" fill="#fff"/><path fill-rule="evenodd" clip-rule="evenodd" d="M25 15.104c.863 0 1.563.7 1.563 1.563v16.666a1.562 1.562 0 11-3.125 0V16.667c0-.863.7-1.563 1.562-1.563z" fill="#fff"/></svg>