<svg width="24" height="24" fill="none" xmlns="http://www.w3.org/2000/svg"><path d="M3.75 5a.75.75 0 01.75-.75h15a.75.75 0 01.75.75v17a.75.75 0 01-.75.75h-15a.75.75 0 01-.75-.75V5zm1.5.75v15.5h13.5V5.75H5.25z" fill="#CDCCCC"/><path d="M10 9.25a.75.75 0 01.75.75v6.5a.75.75 0 01-1.5 0V10a.75.75 0 01.75-.75zm4 0a.75.75 0 01.75.75v6.5a.75.75 0 01-1.5 0V10a.75.75 0 01.75-.75zM1.25 5A.75.75 0 012 4.25h20a.75.75 0 010 1.5H2A.75.75 0 011.25 5z" fill="#CDCCCC"/><path d="M8.987 1.64a.75.75 0 01.658-.39h4.744a.75.75 0 01.66.395l1.612 3A.75.75 0 0116 5.75H8a.75.75 0 01-.658-1.11l1.645-3zm1.102 1.11l-.823 1.5h5.48l-.806-1.5h-3.85z" fill="#CDCCCC"/></svg>